<!-- Generated by IcoMoon.io -->
<svg version="1.1" xmlns="http://www.w3.org/2000/svg" width="165" height="32" viewBox="0 0 165 32">
<title>logo_text</title>
<path fill="#173a56" d="M67.398 7.391c0.995 0.606 1.719 1.432 2.173 2.477v-8.873h5.546v23.202h-5.546v-3.167c-0.454 1.045-1.179 1.871-2.173 2.477s-2.184 0.909-3.568 0.909c-1.492 0-2.827-0.361-4.006-1.082s-2.108-1.761-2.789-3.12-1.022-2.947-1.022-4.766c0-1.839 0.341-3.433 1.022-4.781s1.611-2.383 2.789-3.104 2.514-1.082 4.006-1.082c1.384 0 2.573 0.303 3.568 0.909zM6.59 23.352v-7.469h3.575c1.866 0 3.451-0.296 4.755-0.888s2.288-1.405 2.951-2.439c0.663-1.034 0.995-2.214 0.995-3.539 0-2.128-0.742-3.82-2.226-5.075s-3.642-1.882-6.475-1.882h-9.342v21.292h5.767zM12.498 9.009c0 1.755-1.151 2.633-3.452 2.633h-2.916v-5.323h2.916c2.301 0 3.452 0.897 3.452 2.69zM26.488 9.671v-3.171h-5.5v16.853h5.5v-7.671c0-1.389 0.402-2.376 1.206-2.96s1.935-0.876 3.393-0.876h1.576v-5.527c-1.265 0-2.439 0.302-3.522 0.906s-1.967 1.419-2.653 2.446zM49.255 7.345c1.441 0.685 2.574 1.673 3.399 2.963s1.237 2.799 1.237 4.526c0 1.727-0.412 3.236-1.237 4.526s-1.958 2.278-3.399 2.963c-1.441 0.685-3.074 1.027-4.9 1.027s-3.465-0.342-4.916-1.027c-1.452-0.685-2.59-1.673-3.415-2.963s-1.237-2.799-1.237-4.527c0-1.727 0.412-3.236 1.237-4.526s1.963-2.278 3.415-2.963c1.452-0.685 3.091-1.027 4.916-1.027s3.459 0.342 4.9 1.027zM44.885 10.577c-1.051 0-1.935 0.367-2.653 1.1s-1.077 1.791-1.077 3.174 0.359 2.436 1.077 3.159c0.718 0.723 1.603 1.084 2.653 1.084s1.93-0.361 2.637-1.084c0.708-0.723 1.061-1.776 1.061-3.159s-0.354-2.441-1.061-3.174c-0.708-0.733-1.587-1.1-2.637-1.1zM66.61 10.577c-1.271 0-2.293 0.376-3.067 1.127s-1.161 1.795-1.161 3.131 0.387 2.38 1.161 3.131c0.774 0.752 1.796 1.127 3.067 1.127 1.248 0 2.27-0.386 3.067-1.159s1.196-1.806 1.196-3.1c0-1.315-0.398-2.354-1.196-3.116s-1.82-1.143-3.067-1.143zM98.468 23.171v-16.853h-5.836v8.94c0 1.228-0.339 2.175-1.018 2.839s-1.606 0.997-2.783 0.997c-1.131 0-2.030-0.317-2.698-0.951s-1.001-1.525-1.001-2.673v-9.151h-5.769v9.785c0 2.255 0.639 4.027 1.917 5.316s3.003 1.933 5.175 1.933c1.425 0 2.675-0.292 3.75-0.876s1.883-1.369 2.426-2.356v3.050h5.836zM110.803 6.318c2.346 0 4.31 0.591 5.895 1.772s2.583 2.804 2.996 4.869h-5.895c-0.173-0.715-0.531-1.271-1.074-1.668s-1.227-0.596-2.052-0.596c-0.977 0-1.78 0.352-2.41 1.057-0.63 0.705-0.945 1.732-0.945 3.082s0.315 2.377 0.945 3.082c0.629 0.705 1.433 1.057 2.41 1.057 0.826 0 1.509-0.199 2.052-0.596s0.901-0.953 1.074-1.668h5.895c-0.413 2.065-1.411 3.688-2.996 4.869s-3.55 1.772-5.895 1.772c-1.78 0-3.36-0.342-4.738-1.027s-2.459-1.673-3.241-2.963-1.172-2.799-1.172-4.527c0-1.747 0.385-3.261 1.156-4.541s1.851-2.263 3.241-2.948c1.389-0.685 2.974-1.027 4.755-1.027zM133.492 23.352v-4.503h-1.756c-0.694 0-1.187-0.133-1.479-0.398-0.293-0.266-0.439-0.735-0.439-1.409v-6.372h3.643v-4.412h-3.643v-4.197h-5.561v4.197h-2.439v4.412h2.439v6.28c0 2.288 0.59 3.927 1.772 4.917s2.835 1.486 4.96 1.486h2.503zM141.983 0.995v22.357h-5.307v-22.357h5.307zM154.902 17.054l-4.451-10.605h-6.346l7.774 16.651-4.352 8.899h6.245l11.561-25.551h-6.278l-4.153 10.605z"></path>
</svg>
